<svg height="166pt" viewBox="0.00 0.00 2230.00 166.00" width="2230pt" xmlns="http://www.w3.org/2000/svg" xmlns:xlink="http://www.w3.org/1999/xlink">
<g class="graph" id="graph0" transform="scale(1 1) rotate(0) translate(4 162)">
<title>G</title>
<polygon fill="#ffffff" points="-4,4 -4,-162 2226,-162 2226,4 -4,4" stroke="transparent"/>
<!-- 139771994230344 -->
<g class="node" id="node1">
<title>139771994230344</title>
<polygon fill="none" points="0,-88.5 0,-157.5 138,-157.5 138,-88.5 0,-88.5" stroke="#000000"/>
<text fill="#000000" font-family="Times,serif" font-size="14.00" text-anchor="middle" x="69" y="-142.3">sequence: InputLayer</text>
<polyline fill="none" points="0,-134.5 138,-134.5 " stroke="#000000"/>
<text fill="#000000" font-family="Times,serif" font-size="14.00" text-anchor="middle" x="32.5" y="-119.3">input:</text>
<polyline fill="none" points="65,-111.5 65,-134.5 " stroke="#000000"/>
<text fill="#000000" font-family="Times,serif" font-size="14.00" text-anchor="middle" x="101.5" y="-119.3">output:</text>
<polyline fill="none" points="0,-111.5 138,-111.5 " stroke="#000000"/>
<text fill="#000000" font-family="Times,serif" font-size="14.00" text-anchor="middle" x="34.5" y="-96.3">(None, 6)</text>
<polyline fill="none" points="69,-88.5 69,-111.5 " stroke="#000000"/>
<text fill="#000000" font-family="Times,serif" font-size="14.00" text-anchor="middle" x="103.5" y="-96.3">(None, 6)</text>
</g>
<!-- 139770585812888 -->
<g class="node" id="node2">
<title>139770585812888</title>
<polygon fill="none" points="174,-88.5 174,-157.5 326,-157.5 326,-88.5 174,-88.5" stroke="#000000"/>
<text fill="#000000" font-family="Times,serif" font-size="14.00" text-anchor="middle" x="250" y="-142.3">reshape_3: Reshape</text>
<polyline fill="none" points="174,-134.5 326,-134.5 " stroke="#000000"/>
<text fill="#000000" font-family="Times,serif" font-size="14.00" text-anchor="middle" x="210" y="-119.3">input:</text>
<polyline fill="none" points="246,-111.5 246,-134.5 " stroke="#000000"/>
<text fill="#000000" font-family="Times,serif" font-size="14.00" text-anchor="middle" x="286" y="-119.3">output:</text>
<polyline fill="none" points="174,-111.5 326,-111.5 " stroke="#000000"/>
<text fill="#000000" font-family="Times,serif" font-size="14.00" text-anchor="middle" x="208.5" y="-96.3">(None, 6)</text>
<polyline fill="none" points="243,-88.5 243,-111.5 " stroke="#000000"/>
<text fill="#000000" font-family="Times,serif" font-size="14.00" text-anchor="middle" x="284.5" y="-96.3">(None, 6, 1)</text>
</g>
<!-- 139771994230344&#45;&gt;139770585812888 -->
<g class="edge" id="edge1">
<title>139771994230344-&gt;139770585812888</title>
<path d="M138.2031,-123C146.5956,-123 155.2471,-123 163.8461,-123" fill="none" stroke="#000000"/>
<polygon fill="#000000" points="163.898,-126.5001 173.8979,-123 163.8979,-119.5001 163.898,-126.5001" stroke="#000000"/>
</g>
<!-- 139770585811824 -->
<g class="node" id="node3">
<title>139770585811824</title>
<polygon fill="none" points="362,-88.5 362,-157.5 528,-157.5 528,-88.5 362,-88.5" stroke="#000000"/>
<text fill="#000000" font-family="Times,serif" font-size="14.00" text-anchor="middle" x="445" y="-142.3">conv_0: Conv1D</text>
<polyline fill="none" points="362,-134.5 528,-134.5 " stroke="#000000"/>
<text fill="#000000" font-family="Times,serif" font-size="14.00" text-anchor="middle" x="401.5" y="-119.3">input:</text>
<polyline fill="none" points="441,-111.5 441,-134.5 " stroke="#000000"/>
<text fill="#000000" font-family="Times,serif" font-size="14.00" text-anchor="middle" x="484.5" y="-119.3">output:</text>
<polyline fill="none" points="362,-111.5 528,-111.5 " stroke="#000000"/>
<text fill="#000000" font-family="Times,serif" font-size="14.00" text-anchor="middle" x="403.5" y="-96.3">(None, 6, 1)</text>
<polyline fill="none" points="445,-88.5 445,-111.5 " stroke="#000000"/>
<text fill="#000000" font-family="Times,serif" font-size="14.00" text-anchor="middle" x="486.5" y="-96.3">(None, 6, 1)</text>
</g>
<!-- 139770585812888&#45;&gt;139770585811824 -->
<g class="edge" id="edge2">
<title>139770585812888-&gt;139770585811824</title>
<path d="M326.2299,-123C334.5076,-123 343.0003,-123 351.4534,-123" fill="none" stroke="#000000"/>
<polygon fill="#000000" points="351.7275,-126.5001 361.7274,-123 351.7274,-119.5001 351.7275,-126.5001" stroke="#000000"/>
</g>
<!-- 139770585812720 -->
<g class="node" id="node4">
<title>139770585812720</title>
<polygon fill="none" points="564,-88.5 564,-157.5 824,-157.5 824,-88.5 564,-88.5" stroke="#000000"/>
<text fill="#000000" font-family="Times,serif" font-size="14.00" text-anchor="middle" x="694" y="-142.3">batch_normalization_3: BatchNormalization</text>
<polyline fill="none" points="564,-134.5 824,-134.5 " stroke="#000000"/>
<text fill="#000000" font-family="Times,serif" font-size="14.00" text-anchor="middle" x="627" y="-119.3">input:</text>
<polyline fill="none" points="690,-111.5 690,-134.5 " stroke="#000000"/>
<text fill="#000000" font-family="Times,serif" font-size="14.00" text-anchor="middle" x="757" y="-119.3">output:</text>
<polyline fill="none" points="564,-111.5 824,-111.5 " stroke="#000000"/>
<text fill="#000000" font-family="Times,serif" font-size="14.00" text-anchor="middle" x="629" y="-96.3">(None, 6, 1)</text>
<polyline fill="none" points="694,-88.5 694,-111.5 " stroke="#000000"/>
<text fill="#000000" font-family="Times,serif" font-size="14.00" text-anchor="middle" x="759" y="-96.3">(None, 6, 1)</text>
</g>
<!-- 139770585811824&#45;&gt;139770585812720 -->
<g class="edge" id="edge3">
<title>139770585811824-&gt;139770585812720</title>
<path d="M528.2596,-123C536.4905,-123 544.9925,-123 553.5976,-123" fill="none" stroke="#000000"/>
<polygon fill="#000000" points="553.7365,-126.5001 563.7364,-123 553.7364,-119.5001 553.7365,-126.5001" stroke="#000000"/>
</g>
<!-- 139770585810872 -->
<g class="node" id="node5">
<title>139770585810872</title>
<polygon fill="none" points="860,-88.5 860,-157.5 1026,-157.5 1026,-88.5 860,-88.5" stroke="#000000"/>
<text fill="#000000" font-family="Times,serif" font-size="14.00" text-anchor="middle" x="943" y="-142.3">activation_3: Activation</text>
<polyline fill="none" points="860,-134.5 1026,-134.5 " stroke="#000000"/>
<text fill="#000000" font-family="Times,serif" font-size="14.00" text-anchor="middle" x="899.5" y="-119.3">input:</text>
<polyline fill="none" points="939,-111.5 939,-134.5 " stroke="#000000"/>
<text fill="#000000" font-family="Times,serif" font-size="14.00" text-anchor="middle" x="982.5" y="-119.3">output:</text>
<polyline fill="none" points="860,-111.5 1026,-111.5 " stroke="#000000"/>
<text fill="#000000" font-family="Times,serif" font-size="14.00" text-anchor="middle" x="901.5" y="-96.3">(None, 6, 1)</text>
<polyline fill="none" points="943,-88.5 943,-111.5 " stroke="#000000"/>
<text fill="#000000" font-family="Times,serif" font-size="14.00" text-anchor="middle" x="984.5" y="-96.3">(None, 6, 1)</text>
</g>
<!-- 139770585812720&#45;&gt;139770585810872 -->
<g class="edge" id="edge4">
<title>139770585812720-&gt;139770585810872</title>
<path d="M824.334,-123C832.8668,-123 841.3629,-123 849.6616,-123" fill="none" stroke="#000000"/>
<polygon fill="#000000" points="849.6755,-126.5001 859.6755,-123 849.6754,-119.5001 849.6755,-126.5001" stroke="#000000"/>
</g>
<!-- 139770584937024 -->
<g class="node" id="node6">
<title>139770584937024</title>
<polygon fill="none" points="1062,-88.5 1062,-157.5 1269,-157.5 1269,-88.5 1062,-88.5" stroke="#000000"/>
<text fill="#000000" font-family="Times,serif" font-size="14.00" text-anchor="middle" x="1165.5" y="-142.3">max_pooling1d_3: MaxPooling1D</text>
<polyline fill="none" points="1062,-134.5 1269,-134.5 " stroke="#000000"/>
<text fill="#000000" font-family="Times,serif" font-size="14.00" text-anchor="middle" x="1112" y="-119.3">input:</text>
<polyline fill="none" points="1162,-111.5 1162,-134.5 " stroke="#000000"/>
<text fill="#000000" font-family="Times,serif" font-size="14.00" text-anchor="middle" x="1215.5" y="-119.3">output:</text>
<polyline fill="none" points="1062,-111.5 1269,-111.5 " stroke="#000000"/>
<text fill="#000000" font-family="Times,serif" font-size="14.00" text-anchor="middle" x="1113.5" y="-96.3">(None, 6, 1)</text>
<polyline fill="none" points="1165,-88.5 1165,-111.5 " stroke="#000000"/>
<text fill="#000000" font-family="Times,serif" font-size="14.00" text-anchor="middle" x="1217" y="-96.3">(None, 6, 1)</text>
</g>
<!-- 139770585810872&#45;&gt;139770584937024 -->
<g class="edge" id="edge5">
<title>139770585810872-&gt;139770584937024</title>
<path d="M1026.1672,-123C1034.5067,-123 1043.0714,-123 1051.6568,-123" fill="none" stroke="#000000"/>
<polygon fill="#000000" points="1051.7324,-126.5001 1061.7324,-123 1051.7324,-119.5001 1051.7324,-126.5001" stroke="#000000"/>
</g>
<!-- 139770585809528 -->
<g class="node" id="node7">
<title>139770585809528</title>
<polygon fill="none" points="1305,-88.5 1305,-157.5 1457,-157.5 1457,-88.5 1305,-88.5" stroke="#000000"/>
<text fill="#000000" font-family="Times,serif" font-size="14.00" text-anchor="middle" x="1381" y="-142.3">flatten_3: Flatten</text>
<polyline fill="none" points="1305,-134.5 1457,-134.5 " stroke="#000000"/>
<text fill="#000000" font-family="Times,serif" font-size="14.00" text-anchor="middle" x="1341" y="-119.3">input:</text>
<polyline fill="none" points="1377,-111.5 1377,-134.5 " stroke="#000000"/>
<text fill="#000000" font-family="Times,serif" font-size="14.00" text-anchor="middle" x="1417" y="-119.3">output:</text>
<polyline fill="none" points="1305,-111.5 1457,-111.5 " stroke="#000000"/>
<text fill="#000000" font-family="Times,serif" font-size="14.00" text-anchor="middle" x="1346.5" y="-96.3">(None, 6, 1)</text>
<polyline fill="none" points="1388,-88.5 1388,-111.5 " stroke="#000000"/>
<text fill="#000000" font-family="Times,serif" font-size="14.00" text-anchor="middle" x="1422.5" y="-96.3">(None, 6)</text>
</g>
<!-- 139770584937024&#45;&gt;139770585809528 -->
<g class="edge" id="edge6">
<title>139770584937024-&gt;139770585809528</title>
<path d="M1269.1471,-123C1277.7328,-123 1286.3533,-123 1294.7901,-123" fill="none" stroke="#000000"/>
<polygon fill="#000000" points="1294.9754,-126.5001 1304.9754,-123 1294.9754,-119.5001 1294.9754,-126.5001" stroke="#000000"/>
</g>
<!-- 139770585375800 -->
<g class="node" id="node9">
<title>139770585375800</title>
<polygon fill="none" points="1493,-44.5 1493,-113.5 1700,-113.5 1700,-44.5 1493,-44.5" stroke="#000000"/>
<text fill="#000000" font-family="Times,serif" font-size="14.00" text-anchor="middle" x="1596.5" y="-98.3">concatenate: Concatenate</text>
<polyline fill="none" points="1493,-90.5 1700,-90.5 " stroke="#000000"/>
<text fill="#000000" font-family="Times,serif" font-size="14.00" text-anchor="middle" x="1543" y="-75.3">input:</text>
<polyline fill="none" points="1593,-67.5 1593,-90.5 " stroke="#000000"/>
<text fill="#000000" font-family="Times,serif" font-size="14.00" text-anchor="middle" x="1646.5" y="-75.3">output:</text>
<polyline fill="none" points="1493,-67.5 1700,-67.5 " stroke="#000000"/>
<text fill="#000000" font-family="Times,serif" font-size="14.00" text-anchor="middle" x="1562" y="-52.3">[(None, 6), (None, 1)]</text>
<polyline fill="none" points="1631,-44.5 1631,-67.5 " stroke="#000000"/>
<text fill="#000000" font-family="Times,serif" font-size="14.00" text-anchor="middle" x="1665.5" y="-52.3">(None, 7)</text>
</g>
<!-- 139770585809528&#45;&gt;139770585375800 -->
<g class="edge" id="edge7">
<title>139770585809528-&gt;139770585375800</title>
<path d="M1457.2805,-107.4253C1465.6378,-105.719 1474.272,-103.9561 1482.9565,-102.1829" fill="none" stroke="#000000"/>
<polygon fill="#000000" points="1483.6733,-105.6088 1492.7709,-100.179 1482.2729,-98.7503 1483.6733,-105.6088" stroke="#000000"/>
</g>
<!-- 139771994164472 -->
<g class="node" id="node8">
<title>139771994164472</title>
<polygon fill="none" points="1312,-.5 1312,-69.5 1450,-69.5 1450,-.5 1312,-.5" stroke="#000000"/>
<text fill="#000000" font-family="Times,serif" font-size="14.00" text-anchor="middle" x="1381" y="-54.3">horizon: InputLayer</text>
<polyline fill="none" points="1312,-46.5 1450,-46.5 " stroke="#000000"/>
<text fill="#000000" font-family="Times,serif" font-size="14.00" text-anchor="middle" x="1344.5" y="-31.3">input:</text>
<polyline fill="none" points="1377,-23.5 1377,-46.5 " stroke="#000000"/>
<text fill="#000000" font-family="Times,serif" font-size="14.00" text-anchor="middle" x="1413.5" y="-31.3">output:</text>
<polyline fill="none" points="1312,-23.5 1450,-23.5 " stroke="#000000"/>
<text fill="#000000" font-family="Times,serif" font-size="14.00" text-anchor="middle" x="1346.5" y="-8.3">(None, 1)</text>
<polyline fill="none" points="1381,-.5 1381,-23.5 " stroke="#000000"/>
<text fill="#000000" font-family="Times,serif" font-size="14.00" text-anchor="middle" x="1415.5" y="-8.3">(None, 1)</text>
</g>
<!-- 139771994164472&#45;&gt;139770585375800 -->
<g class="edge" id="edge8">
<title>139771994164472-&gt;139770585375800</title>
<path d="M1450.0748,-49.1034C1460.644,-51.2614 1471.7857,-53.5363 1483.0108,-55.8282" fill="none" stroke="#000000"/>
<polygon fill="#000000" points="1482.3862,-59.2728 1492.8843,-57.8441 1483.7866,-52.4143 1482.3862,-59.2728" stroke="#000000"/>
</g>
<!-- 139770585810200 -->
<g class="node" id="node10">
<title>139770585810200</title>
<polygon fill="none" points="1736,-44.5 1736,-113.5 1874,-113.5 1874,-44.5 1736,-44.5" stroke="#000000"/>
<text fill="#000000" font-family="Times,serif" font-size="14.00" text-anchor="middle" x="1805" y="-98.3">dense_0: Dense</text>
<polyline fill="none" points="1736,-90.5 1874,-90.5 " stroke="#000000"/>
<text fill="#000000" font-family="Times,serif" font-size="14.00" text-anchor="middle" x="1768.5" y="-75.3">input:</text>
<polyline fill="none" points="1801,-67.5 1801,-90.5 " stroke="#000000"/>
<text fill="#000000" font-family="Times,serif" font-size="14.00" text-anchor="middle" x="1837.5" y="-75.3">output:</text>
<polyline fill="none" points="1736,-67.5 1874,-67.5 " stroke="#000000"/>
<text fill="#000000" font-family="Times,serif" font-size="14.00" text-anchor="middle" x="1770.5" y="-52.3">(None, 7)</text>
<polyline fill="none" points="1805,-44.5 1805,-67.5 " stroke="#000000"/>
<text fill="#000000" font-family="Times,serif" font-size="14.00" text-anchor="middle" x="1839.5" y="-52.3">(None, 8)</text>
</g>
<!-- 139770585375800&#45;&gt;139770585810200 -->
<g class="edge" id="edge9">
<title>139770585375800-&gt;139770585810200</title>
<path d="M1700.1392,-79C1708.7857,-79 1717.4378,-79 1725.8576,-79" fill="none" stroke="#000000"/>
<polygon fill="#000000" points="1725.9967,-82.5001 1735.9967,-79 1725.9966,-75.5001 1725.9967,-82.5001" stroke="#000000"/>
</g>
<!-- 139770586149104 -->
<g class="node" id="node11">
<title>139770586149104</title>
<polygon fill="none" points="1910,-44.5 1910,-113.5 2048,-113.5 2048,-44.5 1910,-44.5" stroke="#000000"/>
<text fill="#000000" font-family="Times,serif" font-size="14.00" text-anchor="middle" x="1979" y="-98.3">dense_1: Dense</text>
<polyline fill="none" points="1910,-90.5 2048,-90.5 " stroke="#000000"/>
<text fill="#000000" font-family="Times,serif" font-size="14.00" text-anchor="middle" x="1942.5" y="-75.3">input:</text>
<polyline fill="none" points="1975,-67.5 1975,-90.5 " stroke="#000000"/>
<text fill="#000000" font-family="Times,serif" font-size="14.00" text-anchor="middle" x="2011.5" y="-75.3">output:</text>
<polyline fill="none" points="1910,-67.5 2048,-67.5 " stroke="#000000"/>
<text fill="#000000" font-family="Times,serif" font-size="14.00" text-anchor="middle" x="1944.5" y="-52.3">(None, 8)</text>
<polyline fill="none" points="1979,-44.5 1979,-67.5 " stroke="#000000"/>
<text fill="#000000" font-family="Times,serif" font-size="14.00" text-anchor="middle" x="2013.5" y="-52.3">(None, 8)</text>
</g>
<!-- 139770585810200&#45;&gt;139770586149104 -->
<g class="edge" id="edge10">
<title>139770585810200-&gt;139770586149104</title>
<path d="M1874.0193,-79C1882.4757,-79 1891.1691,-79 1899.7607,-79" fill="none" stroke="#000000"/>
<polygon fill="#000000" points="1899.7795,-82.5001 1909.7795,-79 1899.7794,-75.5001 1899.7795,-82.5001" stroke="#000000"/>
</g>
<!-- 139770591142744 -->
<g class="node" id="node12">
<title>139770591142744</title>
<polygon fill="none" points="2084,-44.5 2084,-113.5 2222,-113.5 2222,-44.5 2084,-44.5" stroke="#000000"/>
<text fill="#000000" font-family="Times,serif" font-size="14.00" text-anchor="middle" x="2153" y="-98.3">generation: Dense</text>
<polyline fill="none" points="2084,-90.5 2222,-90.5 " stroke="#000000"/>
<text fill="#000000" font-family="Times,serif" font-size="14.00" text-anchor="middle" x="2116.5" y="-75.3">input:</text>
<polyline fill="none" points="2149,-67.5 2149,-90.5 " stroke="#000000"/>
<text fill="#000000" font-family="Times,serif" font-size="14.00" text-anchor="middle" x="2185.5" y="-75.3">output:</text>
<polyline fill="none" points="2084,-67.5 2222,-67.5 " stroke="#000000"/>
<text fill="#000000" font-family="Times,serif" font-size="14.00" text-anchor="middle" x="2118.5" y="-52.3">(None, 8)</text>
<polyline fill="none" points="2153,-44.5 2153,-67.5 " stroke="#000000"/>
<text fill="#000000" font-family="Times,serif" font-size="14.00" text-anchor="middle" x="2187.5" y="-52.3">(None, 1)</text>
</g>
<!-- 139770586149104&#45;&gt;139770591142744 -->
<g class="edge" id="edge11">
<title>139770586149104-&gt;139770591142744</title>
<path d="M2048.0193,-79C2056.4757,-79 2065.1691,-79 2073.7607,-79" fill="none" stroke="#000000"/>
<polygon fill="#000000" points="2073.7795,-82.5001 2083.7795,-79 2073.7794,-75.5001 2073.7795,-82.5001" stroke="#000000"/>
</g>
</g>
</svg>