<svg height="215pt" viewBox="0.00 0.00 316.89 215.00" width="317pt" xmlns="http://www.w3.org/2000/svg" xmlns:xlink="http://www.w3.org/1999/xlink">
<g class="graph" id="graph0" transform="scale(1 1) rotate(0) translate(4 211)">
<title>G</title>
<polygon fill="#ffffff" points="-4,4 -4,-211 312.8867,-211 312.8867,4 -4,4" stroke="transparent"/>
<!-- 5541096080 -->
<g class="node" id="node1">
<title>5541096080</title>
<polygon fill="none" points="0,-162.5 0,-206.5 308.8867,-206.5 308.8867,-162.5 0,-162.5" stroke="#000000"/>
<text fill="#000000" font-family="Times,serif" font-size="14.00" text-anchor="middle" x="77.7847" y="-180.3">input_image: InputLayer</text>
<polyline fill="none" points="155.5693,-162.5 155.5693,-206.5 " stroke="#000000"/>
<text fill="#000000" font-family="Times,serif" font-size="14.00" text-anchor="middle" x="183.4038" y="-191.3">input:</text>
<polyline fill="none" points="155.5693,-184.5 211.2383,-184.5 " stroke="#000000"/>
<text fill="#000000" font-family="Times,serif" font-size="14.00" text-anchor="middle" x="183.4038" y="-169.3">output:</text>
<polyline fill="none" points="211.2383,-162.5 211.2383,-206.5 " stroke="#000000"/>
<text fill="#000000" font-family="Times,serif" font-size="14.00" text-anchor="middle" x="260.0625" y="-191.3">(None, 28, 28)</text>
<polyline fill="none" points="211.2383,-184.5 308.8867,-184.5 " stroke="#000000"/>
<text fill="#000000" font-family="Times,serif" font-size="14.00" text-anchor="middle" x="260.0625" y="-169.3">(None, 28, 28)</text>
</g>
<!-- 5541096248 -->
<g class="node" id="node2">
<title>5541096248</title>
<polygon fill="none" points="22.1519,-81.5 22.1519,-125.5 286.7349,-125.5 286.7349,-81.5 22.1519,-81.5" stroke="#000000"/>
<text fill="#000000" font-family="Times,serif" font-size="14.00" text-anchor="middle" x="77.7847" y="-99.3">flatten_1: Flatten</text>
<polyline fill="none" points="133.4175,-81.5 133.4175,-125.5 " stroke="#000000"/>
<text fill="#000000" font-family="Times,serif" font-size="14.00" text-anchor="middle" x="161.252" y="-110.3">input:</text>
<polyline fill="none" points="133.4175,-103.5 189.0864,-103.5 " stroke="#000000"/>
<text fill="#000000" font-family="Times,serif" font-size="14.00" text-anchor="middle" x="161.252" y="-88.3">output:</text>
<polyline fill="none" points="189.0864,-81.5 189.0864,-125.5 " stroke="#000000"/>
<text fill="#000000" font-family="Times,serif" font-size="14.00" text-anchor="middle" x="237.9106" y="-110.3">(None, 28, 28)</text>
<polyline fill="none" points="189.0864,-103.5 286.7349,-103.5 " stroke="#000000"/>
<text fill="#000000" font-family="Times,serif" font-size="14.00" text-anchor="middle" x="237.9106" y="-88.3">(None, 784)</text>
</g>
<!-- 5541096080&#45;&gt;5541096248 -->
<g class="edge" id="edge1">
<title>5541096080-&gt;5541096248</title>
<path d="M154.4434,-162.3664C154.4434,-154.1516 154.4434,-144.6579 154.4434,-135.7252" fill="none" stroke="#000000"/>
<polygon fill="#000000" points="157.9435,-135.6068 154.4434,-125.6068 150.9435,-135.6069 157.9435,-135.6068" stroke="#000000"/>
</g>
<!-- 5541096024 -->
<g class="node" id="node3">
<title>5541096024</title>
<polygon fill="none" points="32.6587,-.5 32.6587,-44.5 276.228,-44.5 276.228,-.5 32.6587,-.5" stroke="#000000"/>
<text fill="#000000" font-family="Times,serif" font-size="14.00" text-anchor="middle" x="84.7847" y="-18.3">dense_1: Dense</text>
<polyline fill="none" points="136.9106,-.5 136.9106,-44.5 " stroke="#000000"/>
<text fill="#000000" font-family="Times,serif" font-size="14.00" text-anchor="middle" x="164.7451" y="-29.3">input:</text>
<polyline fill="none" points="136.9106,-22.5 192.5796,-22.5 " stroke="#000000"/>
<text fill="#000000" font-family="Times,serif" font-size="14.00" text-anchor="middle" x="164.7451" y="-7.3">output:</text>
<polyline fill="none" points="192.5796,-.5 192.5796,-44.5 " stroke="#000000"/>
<text fill="#000000" font-family="Times,serif" font-size="14.00" text-anchor="middle" x="234.4038" y="-29.3">(None, 784)</text>
<polyline fill="none" points="192.5796,-22.5 276.228,-22.5 " stroke="#000000"/>
<text fill="#000000" font-family="Times,serif" font-size="14.00" text-anchor="middle" x="234.4038" y="-7.3">(None, 32)</text>
</g>
<!-- 5541096248&#45;&gt;5541096024 -->
<g class="edge" id="edge2">
<title>5541096248-&gt;5541096024</title>
<path d="M154.4434,-81.3664C154.4434,-73.1516 154.4434,-63.6579 154.4434,-54.7252" fill="none" stroke="#000000"/>
<polygon fill="#000000" points="157.9435,-54.6068 154.4434,-44.6068 150.9435,-54.6069 157.9435,-54.6068" stroke="#000000"/>
</g>
</g>
</svg>