<svg height="483pt" viewBox="0.00 0.00 1387.50 483.00" width="1388pt" xmlns="http://www.w3.org/2000/svg" xmlns:xlink="http://www.w3.org/1999/xlink">
<g class="graph" id="graph0" transform="scale(1 1) rotate(0) translate(4 479)">
<title>G</title>
<polygon fill="#ffffff" points="-4,4 -4,-479 1383.5,-479 1383.5,4 -4,4" stroke="transparent"/>
<!-- 140143512622024 -->
<g class="node" id="node1">
<title>140143512622024</title>
<polygon fill="none" points="926,-438.5 926,-474.5 1053,-474.5 1053,-438.5 926,-438.5" stroke="#000000"/>
<text fill="#000000" font-family="Times,serif" font-size="14.00" text-anchor="middle" x="989.5" y="-452.8">features: InputLayer</text>
</g>
<!-- 140143511325160 -->
<g class="node" id="node2">
<title>140143511325160</title>
<polygon fill="none" points="542.5,-365.5 542.5,-401.5 766.5,-401.5 766.5,-365.5 542.5,-365.5" stroke="#000000"/>
<text fill="#000000" font-family="Times,serif" font-size="14.00" text-anchor="middle" x="654.5" y="-379.8">volume_mdn_shared_dense_0: Dense</text>
</g>
<!-- 140143512622024&#45;&gt;140143511325160 -->
<g class="edge" id="edge1">
<title>140143512622024-&gt;140143511325160</title>
<path d="M925.7005,-442.5974C875.1984,-431.5925 803.961,-416.0691 747.1698,-403.6937" fill="none" stroke="#000000"/>
<polygon fill="#000000" points="747.6201,-400.2098 737.1041,-401.5003 746.1296,-407.0493 747.6201,-400.2098" stroke="#000000"/>
</g>
<!-- 140143508219440 -->
<g class="node" id="node3">
<title>140143508219440</title>
<polygon fill="none" points="885,-365.5 885,-401.5 1094,-401.5 1094,-365.5 885,-365.5" stroke="#000000"/>
<text fill="#000000" font-family="Times,serif" font-size="14.00" text-anchor="middle" x="989.5" y="-379.8">price_mdn_shared_dense_0: Dense</text>
</g>
<!-- 140143512622024&#45;&gt;140143508219440 -->
<g class="edge" id="edge2">
<title>140143512622024-&gt;140143508219440</title>
<path d="M989.5,-438.4551C989.5,-430.3828 989.5,-420.6764 989.5,-411.6817" fill="none" stroke="#000000"/>
<polygon fill="#000000" points="993.0001,-411.5903 989.5,-401.5904 986.0001,-411.5904 993.0001,-411.5903" stroke="#000000"/>
</g>
<!-- 140143436806408 -->
<g class="node" id="node6">
<title>140143436806408</title>
<polygon fill="none" points="1143.5,-365.5 1143.5,-401.5 1317.5,-401.5 1317.5,-365.5 1143.5,-365.5" stroke="#000000"/>
<text fill="#000000" font-family="Times,serif" font-size="14.00" text-anchor="middle" x="1230.5" y="-379.8">fgm_copula_dense_0: Dense</text>
</g>
<!-- 140143512622024&#45;&gt;140143436806408 -->
<g class="edge" id="edge5">
<title>140143512622024-&gt;140143436806408</title>
<path d="M1049.073,-438.4551C1082.9641,-428.1893 1125.581,-415.2804 1160.9932,-404.5539" fill="none" stroke="#000000"/>
<polygon fill="#000000" points="1162.2211,-407.8391 1170.777,-401.5904 1160.1918,-401.1397 1162.2211,-407.8391" stroke="#000000"/>
</g>
<!-- 140143511324096 -->
<g class="node" id="node4">
<title>140143511324096</title>
<polygon fill="none" points="331.5,-292.5 331.5,-328.5 555.5,-328.5 555.5,-292.5 331.5,-292.5" stroke="#000000"/>
<text fill="#000000" font-family="Times,serif" font-size="14.00" text-anchor="middle" x="443.5" y="-306.8">volume_mdn_shared_dense_1: Dense</text>
</g>
<!-- 140143511325160&#45;&gt;140143511324096 -->
<g class="edge" id="edge3">
<title>140143511325160-&gt;140143511324096</title>
<path d="M602.3427,-365.4551C573.0509,-355.3209 536.314,-342.611 505.55,-331.9675" fill="none" stroke="#000000"/>
<polygon fill="#000000" points="506.3833,-328.5524 495.7886,-328.5904 504.0946,-335.1676 506.3833,-328.5524" stroke="#000000"/>
</g>
<!-- 140143440246488 -->
<g class="node" id="node5">
<title>140143440246488</title>
<polygon fill="none" points="885,-292.5 885,-328.5 1094,-328.5 1094,-292.5 885,-292.5" stroke="#000000"/>
<text fill="#000000" font-family="Times,serif" font-size="14.00" text-anchor="middle" x="989.5" y="-306.8">price_mdn_shared_dense_1: Dense</text>
</g>
<!-- 140143508219440&#45;&gt;140143440246488 -->
<g class="edge" id="edge4">
<title>140143508219440-&gt;140143440246488</title>
<path d="M989.5,-365.4551C989.5,-357.3828 989.5,-347.6764 989.5,-338.6817" fill="none" stroke="#000000"/>
<polygon fill="#000000" points="993.0001,-338.5903 989.5,-328.5904 986.0001,-338.5904 993.0001,-338.5903" stroke="#000000"/>
</g>
<!-- 140143511326224 -->
<g class="node" id="node7">
<title>140143511326224</title>
<polygon fill="none" points="0,-219.5 0,-255.5 215,-255.5 215,-219.5 0,-219.5" stroke="#000000"/>
<text fill="#000000" font-family="Times,serif" font-size="14.00" text-anchor="middle" x="107.5" y="-233.8">volume_mdn_weight_output: Dense</text>
</g>
<!-- 140143511324096&#45;&gt;140143511326224 -->
<g class="edge" id="edge6">
<title>140143511324096-&gt;140143511326224</title>
<path d="M360.4438,-292.4551C311.8906,-281.9063 250.4918,-268.5667 200.3457,-257.6718" fill="none" stroke="#000000"/>
<polygon fill="#000000" points="200.9888,-254.23 190.4736,-255.527 199.5026,-261.0704 200.9888,-254.23" stroke="#000000"/>
</g>
<!-- 140143511389240 -->
<g class="node" id="node8">
<title>140143511389240</title>
<polygon fill="none" points="233,-219.5 233,-255.5 430,-255.5 430,-219.5 233,-219.5" stroke="#000000"/>
<text fill="#000000" font-family="Times,serif" font-size="14.00" text-anchor="middle" x="331.5" y="-233.8">volume_mdn_mu_output: Dense</text>
</g>
<!-- 140143511324096&#45;&gt;140143511389240 -->
<g class="edge" id="edge7">
<title>140143511324096-&gt;140143511389240</title>
<path d="M415.8146,-292.4551C401.276,-282.979 383.282,-271.2508 367.6558,-261.0658" fill="none" stroke="#000000"/>
<polygon fill="#000000" points="369.5438,-258.1186 359.2551,-255.5904 365.7215,-263.983 369.5438,-258.1186" stroke="#000000"/>
</g>
<!-- 140143510811592 -->
<g class="node" id="node9">
<title>140143510811592</title>
<polygon fill="none" points="448.5,-219.5 448.5,-255.5 660.5,-255.5 660.5,-219.5 448.5,-219.5" stroke="#000000"/>
<text fill="#000000" font-family="Times,serif" font-size="14.00" text-anchor="middle" x="554.5" y="-233.8">volume_mdn_sigma_output: Dense</text>
</g>
<!-- 140143511324096&#45;&gt;140143510811592 -->
<g class="edge" id="edge8">
<title>140143511324096-&gt;140143510811592</title>
<path d="M470.9382,-292.4551C485.2136,-283.0667 502.8504,-271.4678 518.2363,-261.3491" fill="none" stroke="#000000"/>
<polygon fill="#000000" points="520.5608,-264.0095 526.9927,-255.5904 516.7145,-258.1609 520.5608,-264.0095" stroke="#000000"/>
</g>
<!-- 140143508221680 -->
<g class="node" id="node10">
<title>140143508221680</title>
<polygon fill="none" points="679,-219.5 679,-255.5 880,-255.5 880,-219.5 679,-219.5" stroke="#000000"/>
<text fill="#000000" font-family="Times,serif" font-size="14.00" text-anchor="middle" x="779.5" y="-233.8">price_mdn_weight_output: Dense</text>
</g>
<!-- 140143440246488&#45;&gt;140143508221680 -->
<g class="edge" id="edge9">
<title>140143440246488-&gt;140143508221680</title>
<path d="M937.5899,-292.4551C908.4369,-282.3209 871.8741,-269.611 841.2559,-258.9675" fill="none" stroke="#000000"/>
<polygon fill="#000000" points="842.1356,-255.5679 831.5408,-255.5904 839.8371,-262.1798 842.1356,-255.5679" stroke="#000000"/>
</g>
<!-- 140143440153456 -->
<g class="node" id="node11">
<title>140143440153456</title>
<polygon fill="none" points="898.5,-219.5 898.5,-255.5 1080.5,-255.5 1080.5,-219.5 898.5,-219.5" stroke="#000000"/>
<text fill="#000000" font-family="Times,serif" font-size="14.00" text-anchor="middle" x="989.5" y="-233.8">price_mdn_mu_output: Dense</text>
</g>
<!-- 140143440246488&#45;&gt;140143440153456 -->
<g class="edge" id="edge10">
<title>140143440246488-&gt;140143440153456</title>
<path d="M989.5,-292.4551C989.5,-284.3828 989.5,-274.6764 989.5,-265.6817" fill="none" stroke="#000000"/>
<polygon fill="#000000" points="993.0001,-265.5903 989.5,-255.5904 986.0001,-265.5904 993.0001,-265.5903" stroke="#000000"/>
</g>
<!-- 140143439392952 -->
<g class="node" id="node12">
<title>140143439392952</title>
<polygon fill="none" points="1099,-219.5 1099,-255.5 1296,-255.5 1296,-219.5 1099,-219.5" stroke="#000000"/>
<text fill="#000000" font-family="Times,serif" font-size="14.00" text-anchor="middle" x="1197.5" y="-233.8">price_mdn_sigma_output: Dense</text>
</g>
<!-- 140143440246488&#45;&gt;140143439392952 -->
<g class="edge" id="edge11">
<title>140143440246488-&gt;140143439392952</title>
<path d="M1040.9157,-292.4551C1069.7911,-282.3209 1106.0056,-269.611 1136.3322,-258.9675" fill="none" stroke="#000000"/>
<polygon fill="#000000" points="1137.6782,-262.2045 1145.9549,-255.5904 1135.36,-255.5995 1137.6782,-262.2045" stroke="#000000"/>
</g>
<!-- 140143436723704 -->
<g class="node" id="node13">
<title>140143436723704</title>
<polygon fill="none" points="1205.5,-292.5 1205.5,-328.5 1379.5,-328.5 1379.5,-292.5 1205.5,-292.5" stroke="#000000"/>
<text fill="#000000" font-family="Times,serif" font-size="14.00" text-anchor="middle" x="1292.5" y="-306.8">fgm_copula_dense_1: Dense</text>
</g>
<!-- 140143436806408&#45;&gt;140143436723704 -->
<g class="edge" id="edge12">
<title>140143436806408-&gt;140143436723704</title>
<path d="M1245.8258,-365.4551C1253.2779,-356.6809 1262.3698,-345.9759 1270.5427,-336.353" fill="none" stroke="#000000"/>
<polygon fill="#000000" points="1273.3298,-338.4781 1277.1356,-328.5904 1267.9944,-333.9466 1273.3298,-338.4781" stroke="#000000"/>
</g>
<!-- 140143510437448 -->
<g class="node" id="node14">
<title>140143510437448</title>
<polygon fill="none" points="245.5,-146.5 245.5,-182.5 461.5,-182.5 461.5,-146.5 245.5,-146.5" stroke="#000000"/>
<text fill="#000000" font-family="Times,serif" font-size="14.00" text-anchor="middle" x="353.5" y="-160.8">volume_marginal_sampler: Lambda</text>
</g>
<!-- 140143511326224&#45;&gt;140143510437448 -->
<g class="edge" id="edge13">
<title>140143511326224-&gt;140143510437448</title>
<path d="M168.309,-219.4551C202.9032,-209.1893 246.4042,-196.2804 282.5512,-185.5539" fill="none" stroke="#000000"/>
<polygon fill="#000000" points="283.9469,-188.7907 292.538,-182.5904 281.9554,-182.0799 283.9469,-188.7907" stroke="#000000"/>
</g>
<!-- 140143435629008 -->
<g class="node" id="node17">
<title>140143435629008</title>
<polygon fill="none" points="340.5,-73.5 340.5,-109.5 546.5,-109.5 546.5,-73.5 340.5,-73.5" stroke="#000000"/>
<text fill="#000000" font-family="Times,serif" font-size="14.00" text-anchor="middle" x="443.5" y="-87.8">volume_sample_quantile: Lambda</text>
</g>
<!-- 140143511326224&#45;&gt;140143435629008 -->
<g class="edge" id="edge21">
<title>140143511326224-&gt;140143435629008</title>
<path d="M127.9356,-219.4207C152.2137,-198.8332 194.7099,-165.5308 236.5,-146 267.6208,-131.4555 303.2562,-120.3088 336.0882,-112.0024" fill="none" stroke="#000000"/>
<polygon fill="#000000" points="337.3076,-115.3067 346.1794,-109.5152 335.6324,-108.5101 337.3076,-115.3067" stroke="#000000"/>
</g>
<!-- 140143511389240&#45;&gt;140143510437448 -->
<g class="edge" id="edge14">
<title>140143511389240-&gt;140143510437448</title>
<path d="M336.9382,-219.4551C339.3974,-211.2951 342.3598,-201.4652 345.0952,-192.3887" fill="none" stroke="#000000"/>
<polygon fill="#000000" points="348.5137,-193.175 348.0481,-182.5904 341.8114,-191.1551 348.5137,-193.175" stroke="#000000"/>
</g>
<!-- 140143511389240&#45;&gt;140143435629008 -->
<g class="edge" id="edge22">
<title>140143511389240-&gt;140143435629008</title>
<path d="M429.3263,-219.4641C480.4353,-207.1505 532.4668,-188.6783 532.5,-164.5" fill="none" stroke="#000000"/>
<path d="M532.5,-164.5C532.5296,-142.9468 516.7377,-126.5974 498.45,-114.8926" fill="none" stroke="#000000"/>
<polygon fill="#000000" points="499.7225,-111.5799 489.3304,-109.5172 496.168,-117.6103 499.7225,-111.5799" stroke="#000000"/>
</g>
<!-- 140143510811592&#45;&gt;140143510437448 -->
<g class="edge" id="edge15">
<title>140143510811592-&gt;140143510437448</title>
<path d="M504.8146,-219.4551C477.0318,-209.3648 442.2181,-196.721 412.9902,-186.1059" fill="none" stroke="#000000"/>
<polygon fill="#000000" points="413.9046,-182.7143 403.3104,-182.5904 411.5149,-189.2939 413.9046,-182.7143" stroke="#000000"/>
</g>
<!-- 140143510811592&#45;&gt;140143435629008 -->
<g class="edge" id="edge23">
<title>140143510811592-&gt;140143435629008</title>
<path d="M545.7903,-219.3527C539.6328,-204.8515 532.4735,-183.8255 532.5,-164.5" fill="none" stroke="#000000"/>
</g>
<!-- 140143439393232 -->
<g class="node" id="node15">
<title>140143439393232</title>
<polygon fill="none" points="888.5,-146.5 888.5,-182.5 1090.5,-182.5 1090.5,-146.5 888.5,-146.5" stroke="#000000"/>
<text fill="#000000" font-family="Times,serif" font-size="14.00" text-anchor="middle" x="989.5" y="-160.8">price_marginal_sampler: Lambda</text>
</g>
<!-- 140143508221680&#45;&gt;140143439393232 -->
<g class="edge" id="edge16">
<title>140143508221680-&gt;140143439393232</title>
<path d="M831.4101,-219.4551C860.5631,-209.3209 897.1259,-196.611 927.7441,-185.9675" fill="none" stroke="#000000"/>
<polygon fill="#000000" points="929.1629,-189.1798 937.4592,-182.5904 926.8644,-182.5679 929.1629,-189.1798" stroke="#000000"/>
</g>
<!-- 140143435871008 -->
<g class="node" id="node18">
<title>140143435871008</title>
<polygon fill="none" points="893.5,-73.5 893.5,-109.5 1085.5,-109.5 1085.5,-73.5 893.5,-73.5" stroke="#000000"/>
<text fill="#000000" font-family="Times,serif" font-size="14.00" text-anchor="middle" x="989.5" y="-87.8">price_sample_quantile: Lambda</text>
</g>
<!-- 140143508221680&#45;&gt;140143435871008 -->
<g class="edge" id="edge25">
<title>140143508221680-&gt;140143435871008</title>
<path d="M796.2807,-219.3515C815.1834,-199.6094 847.4655,-167.9406 879.5,-146 897.25,-133.8429 918.1053,-122.7993 936.8569,-113.8814" fill="none" stroke="#000000"/>
<polygon fill="#000000" points="938.5701,-116.9445 946.156,-109.5482 935.6134,-110.5995 938.5701,-116.9445" stroke="#000000"/>
</g>
<!-- 140143440153456&#45;&gt;140143439393232 -->
<g class="edge" id="edge17">
<title>140143440153456-&gt;140143439393232</title>
<path d="M989.5,-219.4551C989.5,-211.3828 989.5,-201.6764 989.5,-192.6817" fill="none" stroke="#000000"/>
<polygon fill="#000000" points="993.0001,-192.5903 989.5,-182.5904 986.0001,-192.5904 993.0001,-192.5903" stroke="#000000"/>
</g>
<!-- 140143440153456&#45;&gt;140143435871008 -->
<g class="edge" id="edge26">
<title>140143440153456-&gt;140143435871008</title>
<path d="M1064.7217,-219.4976C1111.6691,-206.0175 1162.3698,-186.2216 1157.5,-164.5" fill="none" stroke="#000000"/>
<path d="M1157.5,-164.5C1152.9821,-144.3481 1109.8039,-125.8537 1068.3573,-112.5221" fill="none" stroke="#000000"/>
<polygon fill="#000000" points="1069.3116,-109.1534 1058.7225,-109.5024 1067.218,-115.833 1069.3116,-109.1534" stroke="#000000"/>
</g>
<!-- 140143439392952&#45;&gt;140143439393232 -->
<g class="edge" id="edge18">
<title>140143439392952-&gt;140143439393232</title>
<path d="M1146.0843,-219.4551C1117.2089,-209.3209 1080.9944,-196.611 1050.6678,-185.9675" fill="none" stroke="#000000"/>
<polygon fill="#000000" points="1051.64,-182.5995 1041.0451,-182.5904 1049.3218,-189.2045 1051.64,-182.5995" stroke="#000000"/>
</g>
<!-- 140143439392952&#45;&gt;140143435871008 -->
<g class="edge" id="edge27">
<title>140143439392952-&gt;140143435871008</title>
<path d="M1183.8446,-219.4683C1174.1396,-205.3655 1162.0524,-184.8061 1157.5,-164.5" fill="none" stroke="#000000"/>
</g>
<!-- 140143436946848 -->
<g class="node" id="node16">
<title>140143436946848</title>
<polygon fill="none" points="1233.5,-146.5 1233.5,-182.5 1317.5,-182.5 1317.5,-146.5 1233.5,-146.5" stroke="#000000"/>
<text fill="#000000" font-family="Times,serif" font-size="14.00" text-anchor="middle" x="1275.5" y="-160.8">theta: Dense</text>
</g>
<!-- 140143436723704&#45;&gt;140143436946848 -->
<g class="edge" id="edge19">
<title>140143436723704-&gt;140143436946848</title>
<path d="M1299.1989,-292.3866C1305.1312,-273.7592 1311.931,-244.0191 1305.5,-219 1303.0515,-209.4744 1298.549,-199.8296 1293.7635,-191.3556" fill="none" stroke="#000000"/>
<polygon fill="#000000" points="1296.6985,-189.4448 1288.5436,-182.6811 1290.7007,-193.054 1296.6985,-189.4448" stroke="#000000"/>
</g>
<!-- 140143510437448&#45;&gt;140143435629008 -->
<g class="edge" id="edge20">
<title>140143510437448-&gt;140143435629008</title>
<path d="M375.7472,-146.4551C387.1055,-137.2422 401.0883,-125.9006 413.3956,-115.918" fill="none" stroke="#000000"/>
<polygon fill="#000000" points="415.6352,-118.6081 421.1968,-109.5904 411.2256,-113.1716 415.6352,-118.6081" stroke="#000000"/>
</g>
<!-- 140143439393232&#45;&gt;140143435871008 -->
<g class="edge" id="edge24">
<title>140143439393232-&gt;140143435871008</title>
<path d="M989.5,-146.4551C989.5,-138.3828 989.5,-128.6764 989.5,-119.6817" fill="none" stroke="#000000"/>
<polygon fill="#000000" points="993.0001,-119.5903 989.5,-109.5904 986.0001,-119.5904 993.0001,-119.5903" stroke="#000000"/>
</g>
<!-- 140143436123944 -->
<g class="node" id="node19">
<title>140143436123944</title>
<polygon fill="none" points="1156.5,-73.5 1156.5,-109.5 1286.5,-109.5 1286.5,-73.5 1156.5,-73.5" stroke="#000000"/>
<text fill="#000000" font-family="Times,serif" font-size="14.00" text-anchor="middle" x="1221.5" y="-87.8">lambda_13: Lambda</text>
</g>
<!-- 140143436946848&#45;&gt;140143436123944 -->
<g class="edge" id="edge28">
<title>140143436946848-&gt;140143436123944</title>
<path d="M1262.1517,-146.4551C1255.7261,-137.7686 1247.9007,-127.1898 1240.8379,-117.642" fill="none" stroke="#000000"/>
<polygon fill="#000000" points="1243.6428,-115.5484 1234.8819,-109.5904 1238.0151,-119.7113 1243.6428,-115.5484" stroke="#000000"/>
</g>
<!-- 140143435871400 -->
<g class="node" id="node20">
<title>140143435871400</title>
<polygon fill="none" points="900,-.5 900,-36.5 1079,-36.5 1079,-.5 900,-.5" stroke="#000000"/>
<text fill="#000000" font-family="Times,serif" font-size="14.00" text-anchor="middle" x="989.5" y="-14.8">copula_sample_loss: Lambda</text>
</g>
<!-- 140143435629008&#45;&gt;140143435871400 -->
<g class="edge" id="edge29">
<title>140143435629008-&gt;140143435871400</title>
<path d="M546.5192,-77.7264C644.8667,-64.5774 792.0956,-44.8929 889.4456,-31.8772" fill="none" stroke="#000000"/>
<polygon fill="#000000" points="890.1413,-35.3155 899.5893,-30.521 889.2136,-28.3772 890.1413,-35.3155" stroke="#000000"/>
</g>
<!-- 140143435871008&#45;&gt;140143435871400 -->
<g class="edge" id="edge30">
<title>140143435871008-&gt;140143435871400</title>
<path d="M989.5,-73.4551C989.5,-65.3828 989.5,-55.6764 989.5,-46.6817" fill="none" stroke="#000000"/>
<polygon fill="#000000" points="993.0001,-46.5903 989.5,-36.5904 986.0001,-46.5904 993.0001,-46.5903" stroke="#000000"/>
</g>
<!-- 140143436123944&#45;&gt;140143435871400 -->
<g class="edge" id="edge31">
<title>140143436123944-&gt;140143435871400</title>
<path d="M1164.1517,-73.4551C1131.6657,-63.2332 1090.8514,-50.3907 1056.8485,-39.6916" fill="none" stroke="#000000"/>
<polygon fill="#000000" points="1057.5821,-36.2533 1046.9926,-36.5904 1055.481,-42.9305 1057.5821,-36.2533" stroke="#000000"/>
</g>
</g>
</svg>